<!DOCTYPE svg PUBLIC "-//W3C//DTD SVG 1.1//EN" "http://www.w3.org/Graphics/SVG/1.1/DTD/svg11.dtd">
<svg
  xmlns="http://www.w3.org/2000/svg" fill-rule="evenodd" stroke-linejoin="round" stroke-miterlimit="1.4" clip-rule="evenodd" viewBox="0 0 89 693">
  <path fill="#505050" fill-rule="nonzero" d="M5.8 16.5h10.8V0h5.8v16.5h10.8V0h5.9v16.5h10.8V0h5.8v16.5h10.8V0h5.8v16.5h10.8V0H89v692.7h-5.8v-9.2H72.3v9.2h-5.8v-9.2H55.7v9.2h-5.8v-9.2H39v9.2h-5.9v-9.2H22.4v9.2h-5.8v-9.2H5.8v9.2H0V0h5.8v16.5zm0 647v13h10.8v-13H5.8zm16.6 0v13h10.8v-13H22.4zm16.7 0v13h10.8v-13H39zm16.6 0v13h10.8v-13H55.7zm16.6 0v13h10.8v-13H72.3zm-66.5-20v13h10.8v-13H5.8zm16.6 0v13h10.8v-13H22.4zm16.7 0v13h10.8v-13H39zm16.6 0v13h10.8v-13H55.7zm16.6 0v13h10.8v-13H72.3zm-66.5-20v13h10.8v-13H5.8zm16.6 0v13h10.8v-13H22.4zm16.7 0v13h10.8v-13H39zm16.6 0v13h10.8v-13H55.7zm16.6 0v13h10.8v-13H72.3zm-66.5-20v13h10.8v-13H5.8zm16.6 0v13h10.8v-13H22.4zm16.7 0v13h10.8v-13H39zm16.6 0v13h10.8v-13H55.7zm16.6 0v13h10.8v-13H72.3zm-66.5-20v13h10.8v-13H5.8zm16.6 0v13h10.8v-13H22.4zm16.7 0v13h10.8v-13H39zm16.6 0v13h10.8v-13H55.7zm16.6 0v13h10.8v-13H72.3zm-66.5-20v13h10.8v-13H5.8zm16.6 0v13h10.8v-13H22.4zm16.7 0v13h10.8v-13H39zm16.6 0v13h10.8v-13H55.7zm16.6 0v13h10.8v-13H72.3zm-66.5-20v13h10.8v-13H5.8zm16.6 0v13h10.8v-13H22.4zm16.7 0v13h10.8v-13H39zm16.6 0v13h10.8v-13H55.7zm16.6 0v13h10.8v-13H72.3zm-66.5-20v13h10.8v-13H5.8zm16.6 0v13h10.8v-13H22.4zm16.7 0v13h10.8v-13H39zm16.6 0v13h10.8v-13H55.7zm16.6 0v13h10.8v-13H72.3zm-66.5-20v13h10.8v-13H5.8zm16.6 0v13h10.8v-13H22.4zm16.7 0v13h10.8v-13H39zm16.6 0v13h10.8v-13H55.7zm16.6 0v13h10.8v-13H72.3zm-66.5-20v13h10.8v-13H5.8zm16.6 0v13h10.8v-13H22.4zm16.7 0v13h10.8v-13H39zm16.6 0v13h10.8v-13H55.7zm16.6 0v13h10.8v-13H72.3zm-66.5-20v13h10.8v-13H5.8zm16.6 0v13h10.8v-13H22.4zm16.7 0v13h10.8v-13H39zm16.6 0v13h10.8v-13H55.7zm16.6 0v13h10.8v-13H72.3zm-66.5-20v13h10.8v-13H5.8zm16.6 0v13h10.8v-13H22.4zm16.7 0v13h10.8v-13H39zm16.6 0v13h10.8v-13H55.7zm16.6 0v13h10.8v-13H72.3zm-66.5-20v13h10.8v-13H5.8zm16.6 0v13h10.8v-13H22.4zm16.7 0v13h10.8v-13H39zm16.6 0v13h10.8v-13H55.7zm16.6 0v13h10.8v-13H72.3zm-66.5-20v13h10.8v-13H5.8zm16.6 0v13h10.8v-13H22.4zm16.7 0v13h10.8v-13H39zm16.6 0v13h10.8v-13H55.7zm16.6 0v13h10.8v-13H72.3zm-66.5-20v13h10.8v-13H5.8zm16.6 0v13h10.8v-13H22.4zm16.7 0v13h10.8v-13H39zm16.6 0v13h10.8v-13H55.7zm16.6 0v13h10.8v-13H72.3zm-66.5-20v13h10.8v-13H5.8zm16.6 0v13h10.8v-13H22.4zm16.7 0v13h10.8v-13H39zm16.6 0v13h10.8v-13H55.7zm16.6 0v13h10.8v-13H72.3zm-66.5-20v13h10.8v-13H5.8zm16.6 0v13h10.8v-13H22.4zm16.7 0v13h10.8v-13H39zm16.6 0v13h10.8v-13H55.7zm16.6 0v13h10.8v-13H72.3zm-66.5-20v13h10.8v-13H5.8zm16.6 0v13h10.8v-13H22.4zm16.7 0v13h10.8v-13H39zm16.6 0v13h10.8v-13H55.7zm16.6 0v13h10.8v-13H72.3zm-66.5-20v13h10.8v-13H5.8zm16.6 0v13h10.8v-13H22.4zm16.7 0v13h10.8v-13H39zm16.6 0v13h10.8v-13H55.7zm16.6 0v13h10.8v-13H72.3zm-66.5-20v13h10.8v-13H5.8zm16.6 0v13h10.8v-13H22.4zm16.7 0v13h10.8v-13H39zm16.6 0v13h10.8v-13H55.7zm16.6 0v13h10.8v-13H72.3zm-66.5-20v13h10.8v-13H5.8zm16.6 0v13h10.8v-13H22.4zm16.7 0v13h10.8v-13H39zm16.6 0v13h10.8v-13H55.7zm16.6 0v13h10.8v-13H72.3zm-66.5-20v13h10.8v-13H5.8zm16.6 0v13h10.8v-13H22.4zm16.7 0v13h10.8v-13H39zm16.6 0v13h10.8v-13H55.7zm16.6 0v13h10.8v-13H72.3zm-66.5-20v13h10.8v-13H5.8zm16.6 0v13h10.8v-13H22.4zm16.7 0v13h10.8v-13H39zm16.6 0v13h10.8v-13H55.7zm16.6 0v13h10.8v-13H72.3zm-66.5-20v13h10.8v-13H5.8zm16.6 0v13h10.8v-13H22.4zm16.7 0v13h10.8v-13H39zm16.6 0v13h10.8v-13H55.7zm16.6 0v13h10.8v-13H72.3zm-66.5-20v13h10.8v-13H5.8zm16.6 0v13h10.8v-13H22.4zm16.7 0v13h10.8v-13H39zm16.6 0v13h10.8v-13H55.7zm16.6 0v13h10.8v-13H72.3zm-66.5-20v13h10.8v-13H5.8zm16.6 0v13h10.8v-13H22.4zm16.7 0v13h10.8v-13H39zm16.6 0v13h10.8v-13H55.7zm16.6 0v13h10.8v-13H72.3zm-66.5-20v13h10.8v-13H5.8zm16.6 0v13h10.8v-13H22.4zm16.7 0v13h10.8v-13H39zm16.6 0v13h10.8v-13H55.7zm16.6 0v13h10.8v-13H72.3zm-66.5-20v13h10.8v-13H5.8zm16.6 0v13h10.8v-13H22.4zm16.7 0v13h10.8v-13H39zm16.6 0v13h10.8v-13H55.7zm16.6 0v13h10.8v-13H72.3zm-66.5-20v13h10.8v-13H5.8zm16.6 0v13h10.8v-13H22.4zm16.7 0v13h10.8v-13H39zm16.6 0v13h10.8v-13H55.7zm16.6 0v13h10.8v-13H72.3zm-66.5-20v13h10.8v-13H5.8zm16.6 0v13h10.8v-13H22.4zm16.7 0v13h10.8v-13H39zm16.6 0v13h10.8v-13H55.7zm16.6 0v13h10.8v-13H72.3zm-66.5-20v13h10.8v-13H5.8zm16.6 0v13h10.8v-13H22.4zm16.7 0v13h10.8v-13H39zm16.6 0v13h10.8v-13H55.7zm16.6 0v13h10.8v-13H72.3zm-66.5-20v13h10.8v-13H5.8zm16.6 0v13h10.8v-13H22.4zm16.7 0v13h10.8v-13H39zm16.6 0v13h10.8v-13H55.7zm16.6 0v13h10.8v-13H72.3zm-66.5-20v13h10.8v-13H5.8zm16.6 0v13h10.8v-13H22.4zm16.7 0v13h10.8v-13H39zm16.6 0v13h10.8v-13H55.7zm16.6 0v13h10.8v-13H72.3z"/>
</svg>
